{"title":"The.Sound.Of.Music.1965.720p.BluRay.H264.5.1.AC3 - CODY","uid":6075871,"size":3093220157,"categoryP":"video","categoryS":"hd___movies","magnet":"?xt=urn:btih:49e138b3a5d9c509504de746b7072e31922125ca&amp;dn=The.Sound.Of.Music.1965.720p.BluRay.H264.5.1.AC3+-+CODY&amp;tr=udp%3A%2F%2Ftracker.openbittorrent.com%3A80&amp;tr=udp%3A%2F%2Fopen.demonii.com%3A1337&amp;tr=udp%3A%2F%2Ftracker.coppersurfer.tk%3A6969&amp;tr=udp%3A%2F%2Fexodus.desync.com%3A6969","seeders":0,"leechers":1,"uploader":"CODYBOSS1969","files":4,"time":1293836159,"description":"General\nComplete name : The.Sound.Of.Music.1965.720p.BluRay.H264.5.1.AC3 - CODY.mp4\nFormat : MPEG-4\nFormat profile : Base Media\nCodec ID : isom\nFile size : 2.88 GiB\nDuration : 2h 54mn\nOverall bit rate : 2 361 Kbps\nEncoded date : UTC 2010-12-30 18:02:07\nTagged date : UTC 2010-12-30 18:02:07\n\nVideo\nID : 2\nFormat : AVC\nFormat/Info : Advanced Video Codec\nFormat profile : &lt;a class=&quot;__cf_email__&quot; href=&quot;/cdn-cgi/l/email-protection&quot; data-cfemail=&quot;f7bf9e909fb7bbc4d9c6&quot;&gt;[email&amp;#160;protected]&lt;/a&gt;&lt;script cf-hash='f9e31' type=&quot;text/javascript&quot;&gt;\n/* &lt;![CDATA[ */!function(){try{var t=&quot;currentScript&quot;in document?document.currentScript:function(){for(var t=document.getElementsByTagName(&quot;script&quot;),e=t.length;e--;)if(t[e].getAttribute(&quot;cf-hash&quot;))return t[e]}();if(t&amp;&amp;t.previousSibling){var e,r,n,i,c=t.previousSibling,a=c.getAttribute(&quot;data-cfemail&quot;);if(a){for(e=&quot;&quot;,r=parseInt(a.substr(0,2),16),n=2;a.length-n;n+=2)i=parseInt(a.substr(n,2),16)^r,e+=String.fromCharCode(i);e=document.createTextNode(e),c.parentNode.replaceChild(e,c)}}}catch(u){}}();/* ]]&gt; */&lt;/script&gt;\nFormat settings, CABAC : Yes\nFormat settings, ReFrames : 3 frames\nCodec ID : avc1\nCodec ID/Info : Advanced Video Coding\nDuration : 2h 54mn\nBit rate mode : Variable\nBit rate : 1 911 Kbps\nMaximum bit rate : 6 196 Kbps\nWidth : 1 280 pixels\nHeight : 584 pixels\nDisplay aspect ratio : 2.2:1\nFrame rate mode : Constant\nFrame rate : 23.976 fps\nColor space : YUV\nChroma subsampling : 4:2:0\nBit depth : 8 bits\nScan type : Progressive\nBits/(Pixel*Frame) : 0.107\nStream size : 2.33 GiB (81%)\nWriting library : x264 core 65 r999kMod cc51047\nEncoding settings : cabac=1 / ref=3 / deblock=1:0:0 / analyse=0x3:0x133 / me=umh / subme=6 / psy_rd=1.0:0.0 / mixed_ref=1 / me_range=16 / chroma_me=1 / trellis=1 / 8x8dct=1 / cqm=0 / deadzone=21,11 / chroma_qp_offset=-2 / threads=2 / thread_queue=2 / nr=0 / decimate=1 / mbaff=0 / bframes=3 / b_pyramid=0 / b_adapt=1 / b_bias=0 / direct=3 / wpredb=1 / keyint=250 / keyint_min=25 / scenecut=40(pre) / rc=2pass / bitrate=1911 / ratetol=1.0 / qcomp=0.60 / qpmin=10 / qpmax=51 / qpstep=4 / cplxblur=20.0 / qblur=0.5 / ip_ratio=1.40 / pb_ratio=1.30 / aq=1:1.00\nEncoded date : UTC 2010-12-30 18:03:06\nTagged date : UTC 2010-12-30 18:06:40\n\nAudio\nID : 1\nFormat : AC-3\nFormat/Info : Audio Coding 3\nMode extension : CM (complete main)\nCodec ID : ac-3\nDuration : 2h 54mn\nBit rate mode : Constant\nBit rate : 448 Kbps\nChannel(s) : 6 channels\nChannel positions : Front: L C R, Side: L R, LFE\nSampling rate : 48.0 KHz\nBit depth : 16 bits\nCompression mode : Lossy\nStream size : 560 MiB (19%)\nEncoded date : UTC 2010-12-30 18:02:07\nTagged date : UTC 2010-12-30 18:06:40\n\nIMDB: http://www.imdb.com/title/tt0059742/\n\nSubtitles included: Romanian\n","torrent":{"xt":"urn:btih:49e138b3a5d9c509504de746b7072e31922125ca","amp;dn":"The.Sound.Of.Music.1965.720p.BluRay.H264.5.1.AC3+-+CODY","amp;tr":["udp%3A%2F%2Ftracker.openbittorrent.com%3A80","udp%3A%2F%2Fopen.demonii.com%3A1337","udp%3A%2F%2Ftracker.coppersurfer.tk%3A6969","udp%3A%2F%2Fexodus.desync.com%3A6969"],"infoHash":"49e138b3a5d9c509504de746b7072e31922125ca","infoHashBuffer":{"type":"Buffer","data":[73,225,56,179,165,217,197,9,80,77,231,70,183,7,46,49,146,33,37,202]},"announce":[],"urlList":[]}}